<svg xmlns="http://www.w3.org/2000/svg" width="11" height="11">
    <path fill="#070707" fill-opacity="0" fill-rule="evenodd" d="M.001 0H10.4v10.4H.001V0z"/>
    <path fill="#070707" fill-rule="evenodd" d="M10.403 2.904L5.841 7.366l.053.051-.682.666-.052-.05-.143.14-.694-.678.143-.141-4.469-4.373.682-.665 4.469 4.371 4.56-4.462.695.679z"/>
    <path fill="#070707" fill-rule="evenodd" d="M10.403 2.904L5.841 7.366l.053.051-.682.666-.052-.05-.143.14-.694-.678.143-.141-4.469-4.373.682-.665 4.469 4.371 4.56-4.462.695.679z"/>
</svg>
